<svg xmlns="http://www.w3.org/2000/svg" viewBox="0 0 1200 800"><defs><linearGradient id="g" x1="0" y1="0" x2="0" y2="1"><stop offset="0" stop-color="#2b2d5c"/><stop offset="1" stop-color="#c2668b"/></linearGradient></defs><rect width="1200" height="800" fill="url(#g)"/><circle cx="960" cy="200" r="54" fill="#fde7f0"/><g fill="#1b1c3a"><rect x="60" y="430" width="150" height="370"/><rect x="230" y="330" width="120" height="470"/><rect x="370" y="480" width="170" height="320"/><rect x="560" y="260" width="140" height="540"/><rect x="720" y="410" width="160" height="390"/><rect x="900" y="350" width="120" height="450"/><rect x="1040" y="460" width="160" height="340"/></g><g fill="#f7c873"><rect x="262" y="370" width="18" height="24"/><rect x="300" y="430" width="18" height="24"/><rect x="592" y="310" width="18" height="24"/><rect x="640" y="380" width="18" height="24"/><rect x="760" y="460" width="18" height="24"/><rect x="935" y="400" width="18" height="24"/></g></svg>
